<svg id="Layer_1" viewBox="0 0 24 24" xmlns="http://www.w3.org/2000/svg" data-name="Layer 1"><path d="m19.5 0h-15c-2.481 0-4.5 2.019-4.5 4.5v8c0 .276.224.5.5.5s.5-.224.5-.5v-4.5h22v3.5c0 .276.224.5.5.5s.5-.224.5-.5v-7c0-2.481-2.019-4.5-4.5-4.5zm-18.5 7v-2.5c0-1.93 1.57-3.5 3.5-3.5h15c1.93 0 3.5 1.57 3.5 3.5v2.5zm4-3c0 .552-.448 1-1 1s-1-.448-1-1 .448-1 1-1 1 .448 1 1zm3 0c0 .552-.448 1-1 1s-1-.448-1-1 .448-1 1-1 1 .448 1 1zm3 0c0 .552-.448 1-1 1s-1-.448-1-1 .448-1 1-1 1 .448 1 1zm-5 12c-1.103 0-2 .897-2 2s.897 2 2 2 2-.897 2-2-.897-2-2-2zm0 3c-.552 0-1-.448-1-1s.448-1 1-1 1 .448 1 1-.448 1-1 1zm5.336-2.891c.102-.388.046-.792-.156-1.137-.202-.346-.526-.593-.914-.694-.39-.102-.793-.046-1.138.156l-.225.131c-.41-.344-.886-.612-1.403-.794v-.271c0-.827-.673-1.5-1.5-1.5s-1.5.673-1.5 1.5v.271c-.518.182-.993.45-1.403.794l-.225-.131c-.345-.202-.748-.258-1.138-.156-.388.102-.712.349-.914.693-.202.346-.258.75-.156 1.138s.348.712.694.915l.233.137c-.062.296-.092.568-.092.839s.029.543.092.839l-.234.137c-.346.203-.592.527-.693.915-.102.388-.046.792.156 1.137.202.346.526.593.914.694.39.103.793.047 1.138-.156l.225-.131c.41.344.886.612 1.403.794v.271c0 .827.673 1.5 1.5 1.5s1.5-.673 1.5-1.5v-.271c.518-.182.993-.45 1.403-.794l.225.131c.345.203.748.259 1.138.156.388-.102.712-.349.914-.693.202-.346.258-.75.156-1.138s-.348-.712-.694-.915l-.233-.137c.062-.296.092-.568.092-.839s-.029-.543-.092-.839l.234-.137c.346-.203.592-.527.693-.915zm-1.984.944c.102.358.148.658.148.946s-.047.588-.148.946c-.062.219.032.452.229.567l.556.325c.238.14.319.446.18.685-.131.235-.455.321-.685.179l-.542-.316c-.194-.114-.445-.082-.606.079-.432.435-.988.749-1.608.909-.221.058-.375.257-.375.484v.642c0 .275-.225.5-.5.5s-.5-.225-.5-.5v-.642c0-.228-.154-.427-.375-.484-.62-.16-1.177-.475-1.608-.909-.097-.097-.225-.147-.354-.147-.087 0-.174.022-.252.068l-.542.316c-.234.14-.552.057-.685-.18-.14-.237-.059-.544.179-.684l.557-.325c.197-.115.291-.349.229-.567-.102-.358-.148-.658-.148-.946s.047-.588.148-.946c.062-.219-.032-.452-.229-.567l-.556-.325c-.238-.14-.319-.446-.18-.685.131-.236.456-.318.685-.179l.542.316c.195.114.445.083.606-.079.432-.435.988-.749 1.608-.909.221-.058.375-.257.375-.484v-.642c0-.275.225-.5.5-.5s.5.225.5.5v.642c0 .228.154.427.375.484.62.16 1.177.475 1.608.909.161.162.412.193.606.079l.542-.316c.233-.141.553-.057.685.18.14.237.059.544-.179.684l-.557.325c-.197.115-.291.349-.229.567zm11.848.754 1.938-.969c.515-.258.84-.795.828-1.366-.009-.576-.354-1.103-.923-1.357l-8.784-3.023c-.634-.213-1.318-.053-1.782.415-.479.479-.629 1.157-.402 1.815 0 0 3.021 8.778 3.026 8.793.238.526.771.872 1.366.881.571 0 1.085-.317 1.342-.829l.983-1.968 2.311 2.302c.631.656 1.774.655 2.401 0 .658-.631.657-1.773-.002-2.401l-2.303-2.291zm1.597 3.986c-.26.259-.725.263-.988-.002l-2.801-2.79c-.112-.113-.271-.169-.434-.139-.158.025-.294.126-.366.27l-1.293 2.586c-.085.171-.257.277-.439.277-.195-.003-.371-.11-.454-.275l-3.001-8.725c-.101-.292-.041-.577.166-.783.195-.198.486-.265.751-.174l8.737 3.004c.175.079.289.254.292.447.004.19-.104.368-.275.454l-2.561 1.279c-.144.072-.244.209-.27.368-.026.158.026.32.141.434l2.796 2.782c.131.131.203.306.203.492s-.072.362-.204.494z"/></svg>