<svg width="19" height="14" viewBox="0 0 19 14" fill="none" xmlns="http://www.w3.org/2000/svg">
<path d="M4.16667 13.3333C3.47222 13.3333 2.88194 13.0903 2.39583 12.6042C1.90972 12.1181 1.66667 11.5278 1.66667 10.8333H0V1.66667C0 1.20833 0.163333 0.816111 0.49 0.49C0.816667 0.163889 1.20889 0.000555556 1.66667 0H13.3333V3.33333H15.8333L18.3333 6.66667V10.8333H16.6667C16.6667 11.5278 16.4236 12.1181 15.9375 12.6042C15.4514 13.0903 14.8611 13.3333 14.1667 13.3333C13.4722 13.3333 12.8819 13.0903 12.3958 12.6042C11.9097 12.1181 11.6667 11.5278 11.6667 10.8333H6.66667C6.66667 11.5278 6.42361 12.1181 5.9375 12.6042C5.45139 13.0903 4.86111 13.3333 4.16667 13.3333ZM4.16667 11.6667C4.40278 11.6667 4.60083 11.5867 4.76083 11.4267C4.92083 11.2667 5.00056 11.0689 5 10.8333C4.99944 10.5978 4.91945 10.4 4.76 10.24C4.60056 10.08 4.40278 10 4.16667 10C3.93056 10 3.73278 10.08 3.57333 10.24C3.41389 10.4 3.33389 10.5978 3.33333 10.8333C3.33278 11.0689 3.41278 11.2669 3.57333 11.4275C3.73389 11.5881 3.93167 11.6678 4.16667 11.6667ZM1.66667 9.16667H2.33333C2.56944 8.91667 2.84028 8.71528 3.14583 8.5625C3.45139 8.40972 3.79167 8.33333 4.16667 8.33333C4.54167 8.33333 4.88195 8.40972 5.1875 8.5625C5.49306 8.71528 5.76389 8.91667 6 9.16667H11.6667V1.66667H1.66667V9.16667ZM14.1667 11.6667C14.4028 11.6667 14.6008 11.5867 14.7608 11.4267C14.9208 11.2667 15.0006 11.0689 15 10.8333C14.9994 10.5978 14.9194 10.4 14.76 10.24C14.6006 10.08 14.4028 10 14.1667 10C13.9306 10 13.7328 10.08 13.5733 10.24C13.4139 10.4 13.3339 10.5978 13.3333 10.8333C13.3328 11.0689 13.4128 11.2669 13.5733 11.4275C13.7339 11.5881 13.9317 11.6678 14.1667 11.6667ZM13.3333 7.5H16.875L15 5H13.3333V7.5Z" fill="#27AE60"/>
</svg>
