<svg width="40" height="40" viewBox="0 0 40 40" fill="none" xmlns="http://www.w3.org/2000/svg">
<circle cx="20" cy="20" r="20" fill="#27AE60"/>
<path d="M17 29H13C12.45 29 11.9793 28.8043 11.588 28.413C11.1967 28.0217 11.0007 27.5507 11 27V20C11 18.75 11.2377 17.5793 11.713 16.488C12.1883 15.3967 12.8297 14.4467 13.637 13.638C14.4443 12.8293 15.3943 12.1877 16.487 11.713C17.5797 11.2383 18.7507 11.0007 20 11C21.2493 10.9993 22.4203 11.237 23.513 11.713C24.6057 12.189 25.5557 12.8303 26.363 13.637C27.1703 14.4437 27.812 15.3937 28.288 16.487C28.764 17.5803 29.0013 18.7513 29 20V27C29 27.55 28.8043 28.021 28.413 28.413C28.0217 28.805 27.5507 29.0007 27 29H23V21H27V20C27 18.05 26.321 16.396 24.963 15.038C23.605 13.68 21.9507 13.0007 20 13C18.0493 12.9993 16.3953 13.6787 15.038 15.038C13.6807 16.3973 13.0013 18.0513 13 20V21H17V29Z" fill="white"/>
</svg>
