<svg width="16" height="16" viewBox="0 0 16 16" fill="none" xmlns="http://www.w3.org/2000/svg">
<path d="M12.0206 11.078L14.8759 13.9327L13.9326 14.876L11.0779 12.0207C10.0157 12.8721 8.69459 13.3353 7.33325 13.3333C4.02125 13.3333 1.33325 10.6453 1.33325 7.33333C1.33325 4.02133 4.02125 1.33333 7.33325 1.33333C10.6453 1.33333 13.3333 4.02133 13.3333 7.33333C13.3352 8.69467 12.8721 10.0158 12.0206 11.078ZM10.6833 10.5833C11.5293 9.71326 12.0018 8.54695 11.9999 7.33333C11.9999 4.75467 9.91125 2.66667 7.33325 2.66667C4.75459 2.66667 2.66659 4.75467 2.66659 7.33333C2.66659 9.91133 4.75459 12 7.33325 12C8.54687 12.0019 9.71318 11.5294 10.5833 10.6833L10.6833 10.5833Z" fill="#B4BDC4"/>
</svg>
