<svg width="512" height="512" viewBox="0 0 512 512" fill="none" xmlns="http://www.w3.org/2000/svg">
<g clip-path="url(#clip0_2004_2)">
<path d="M256 512C397.385 512 512 397.385 512 256C512 114.615 397.385 0 256 0C114.615 0 0 114.615 0 256C0 397.385 114.615 512 256 512Z" fill="#6FC2E5"/>
<path d="M512 255.91V256C512 397.38 397.38 512 256 512C188.105 512 122.99 485.029 74.9807 437.019C26.9714 389.01 0 323.895 0 256V255.91H512Z" fill="#F6C752"/>
<path d="M512 255.91V256H0V255.91C0.023864 188.03 27.0057 122.939 75.0125 74.9488C123.019 26.959 188.12 -4.19484e-06 256 0C397.35 0 512 114.56 512 255.91Z" fill="#3586CB"/>
</g>
<defs>
<clipPath id="clip0_2004_2">
<rect width="512" height="512" fill="white"/>
</clipPath>
</defs>
</svg>
