<svg width="512" height="512" viewBox="0 0 512 512" fill="none" xmlns="http://www.w3.org/2000/svg">
<mask id="mask0_2004_13" style="mask-type:luminance" maskUnits="userSpaceOnUse" x="15" y="15" width="481" height="482">
<path d="M495.945 256.018C495.945 319.678 470.656 380.732 425.641 425.746C380.627 470.761 319.574 496.05 255.913 496.05C192.253 496.05 131.2 470.761 86.1849 425.746C41.1701 380.732 15.8811 319.678 15.8811 256.018C15.8811 192.358 41.1701 131.305 86.1849 86.2898C131.2 41.275 192.253 15.986 255.913 15.986C319.574 15.986 380.627 41.275 425.641 86.2898C470.656 131.305 495.945 192.358 495.945 256.018Z" fill="white"/>
</mask>
<g mask="url(#mask0_2004_13)">
<mask id="mask1_2004_13" style="mask-type:luminance" maskUnits="userSpaceOnUse" x="16" y="16" width="480" height="480">
<path d="M16 16H496V496H16V16Z" fill="white"/>
</mask>
<g mask="url(#mask1_2004_13)">
<path d="M16 16H496V496H16V16Z" fill="#2B4896"/>
<path d="M228.182 228.687L-28.4741 513.375H21.7759V529.281L262.807 258.843L228.182 228.687Z" fill="white"/>
<path d="M-12.7668 550.86L235.407 274.472L216.483 276.328V275.453L-24.3293 540.36L-12.7668 550.86Z" fill="#E32D3C"/>
<path d="M494.781 -18.3233L238.125 266.364H288.375V282.27L530.406 13.8329L494.781 -18.3233Z" fill="white"/>
<path d="M505.251 -14.531L255.751 260H276.001V260.875L516.813 -4.03101L505.251 -14.531Z" fill="#E32D3C"/>
<path d="M216.222 290.33L-29.6445 -3.56945L20.5552 -1.7102L21.1438 -17.6005L253.001 259.524L216.222 290.33Z" fill="white"/>
<path d="M226.821 286.929L-12.272 3.44029L7.95772 4.18954L7.9901 3.31541L238.76 276.867L226.821 286.929Z" fill="#E32D3C"/>
<path d="M216 16H296V496H216V16Z" fill="white"/>
<path d="M294.501 238.086L551.157 522.773H500.907V538.679L258.876 270.242L294.501 238.086Z" fill="white"/>
<path d="M284.032 241.878L533.532 516.409H513.282V517.284L272.469 252.378L284.032 241.878Z" fill="#E32D3C"/>
<path d="M496 216V296H16.0001V216L496 216Z" fill="white"/>
<path d="M232 16H280V496H232V16Z" fill="#E32D3C"/>
<path d="M496 232V280H16V232L496 232Z" fill="#E32D3C"/>
</g>
</g>
<path opacity="0.75" d="M495.997 256.002C495.997 319.654 470.712 380.7 425.702 425.709C380.693 470.718 319.648 496.004 255.995 496.004C192.343 496.004 131.297 470.718 86.2881 425.709C41.279 380.7 15.9932 319.654 15.9932 256.002C15.9932 192.349 41.279 131.304 86.2881 86.2948C131.297 41.2856 192.343 15.9998 255.995 15.9998C319.648 15.9998 380.693 41.2856 425.702 86.2948C470.712 131.304 495.997 192.349 495.997 256.002Z" fill="url(#paint0_radial_2004_13)"/>
<defs>
<radialGradient id="paint0_radial_2004_13" cx="0" cy="0" r="1" gradientTransform="matrix(208.562 -122.881 121.921 206.882 256.114 256.125)" gradientUnits="userSpaceOnUse">
<stop stop-color="#FEFEFE"/>
<stop offset="1" stop-color="white" stop-opacity="0"/>
</radialGradient>
</defs>
</svg>
