<svg width="18" height="18" viewBox="0 0 18 18" fill="none" xmlns="http://www.w3.org/2000/svg">
<path d="M6 18H2C1.45 18 0.979333 17.8043 0.588 17.413C0.196667 17.0217 0.000666667 16.5507 0 16V9C0 7.75 0.237667 6.57933 0.713 5.488C1.18833 4.39667 1.82967 3.44667 2.637 2.638C3.44433 1.82933 4.39433 1.18767 5.487 0.713001C6.57967 0.238335 7.75067 0.000668065 9 1.3986e-06C10.2493 -0.000665268 11.4203 0.237001 12.513 0.713001C13.6057 1.189 14.5557 1.83033 15.363 2.637C16.1703 3.44367 16.812 4.39367 17.288 5.487C17.764 6.58034 18.0013 7.75133 18 9V16C18 16.55 17.8043 17.021 17.413 17.413C17.0217 17.805 16.5507 18.0007 16 18H12V10H16V9C16 7.05 15.321 5.396 13.963 4.038C12.605 2.68 10.9507 2.00067 9 2C7.04933 1.99933 5.39533 2.67867 4.038 4.038C2.68067 5.39733 2.00133 7.05133 2 9V10H6V18Z" fill="white"/>
</svg>
