<svg width="512" height="512" viewBox="0 0 512 512" fill="none" xmlns="http://www.w3.org/2000/svg">
<g clip-path="url(#clip0_2004_2)">
<path d="M256 512C397.385 512 512 397.385 512 256C512 114.615 397.385 0 256 0C114.615 0 0 114.615 0 256C0 397.385 114.615 512 256 512Z" fill="#6FC2E5"/>
<path d="M512 255.91V256C512 397.38 397.38 512 256 512C188.105 512 122.99 485.029 74.9807 437.019C26.9714 389.01 0 323.895 0 256V255.91H512Z" fill="#F6C752"/>
<path d="M512 255.91V256H0V255.91C0.023864 188.03 27.0057 122.939 75.0125 74.9488C123.019 26.959 188.12 -4.19484e-06 256 0C397.35 0 512 114.56 512 255.91Z" fill="#3586CB"/>
<path d="M287.76 510C251.743 514.503 215.179 511.296 180.496 500.59C145.813 489.884 113.803 471.926 86.5896 447.905C59.3765 423.885 37.5826 394.352 22.6539 361.266C7.72524 328.18 0.00315447 292.298 0 256L0 255.91H63.55V256C63.5545 318.387 86.3402 378.625 127.626 425.396C168.912 472.167 225.856 502.253 287.76 510Z" fill="#F7BB38"/>
<path d="M287.76 2C225.844 9.71829 168.883 39.7954 127.591 86.5732C86.2996 133.351 63.5244 193.605 63.55 256H0V255.91C0.0367549 219.626 7.78221 183.764 22.7234 150.699C37.6645 117.634 59.4603 88.1213 86.6672 64.1148C113.874 40.1084 145.871 22.1565 180.539 11.4481C215.206 0.739659 251.754 -2.4808 287.76 2Z" fill="#366FCA"/>
<path d="M442.44 387C451.431 387 458.72 379.711 458.72 370.72C458.72 361.729 451.431 354.44 442.44 354.44C433.449 354.44 426.16 361.729 426.16 370.72C426.16 379.711 433.449 387 442.44 387Z" fill="#F6D372"/>
<path d="M466.42 358.27C472.788 358.27 477.95 353.108 477.95 346.74C477.95 340.372 472.788 335.21 466.42 335.21C460.052 335.21 454.89 340.372 454.89 346.74C454.89 353.108 460.052 358.27 466.42 358.27Z" fill="#F6D372"/>
</g>
<defs>
<clipPath id="clip0_2004_2">
<rect width="512" height="512" fill="white"/>
</clipPath>
</defs>
</svg>
