<?xml version="1.0" standalone="no"?>
<!DOCTYPE svg PUBLIC "-//W3C//DTD SVG 20010904//EN"
 "http://www.w3.org/TR/2001/REC-SVG-20010904/DTD/svg10.dtd">
<svg version="1.0" xmlns="http://www.w3.org/2000/svg"
 width="512.000000pt" height="512.000000pt" viewBox="0 0 512.000000 512.000000"
 preserveAspectRatio="xMidYMid meet">

<g transform="translate(0.000000,512.000000) scale(0.100000,-0.100000)"
fill="#000000" stroke="none">
<path d="M2484 5073 c-65 -68 -193 -239 -243 -328 -170 -296 -200 -557 -86
-750 53 -92 191 -192 292 -213 l38 -8 3 -86 3 -87 -318 -3 c-306 -3 -320 -4
-360 -25 -22 -12 -55 -39 -72 -60 -60 -72 -62 -95 -59 -575 3 -427 3 -434 25
-475 25 -47 86 -109 114 -118 18 -6 19 -32 19 -781 l0 -774 -388 0 -388 0 -52
-26 c-97 -48 -148 -157 -122 -265 10 -42 24 -64 64 -104 55 -54 103 -75 176
-75 39 0 54 -9 189 -117 162 -130 218 -165 306 -188 89 -23 1781 -23 1870 0
88 23 144 58 306 188 138 110 149 117 191 117 113 0 215 78 239 184 23 106
-27 212 -123 260 l-52 26 -388 0 -388 0 -2 779 c-3 750 -4 780 -22 800 -25 27
-79 28 -106 1 -20 -20 -20 -33 -20 -800 l0 -780 -570 0 -570 0 0 773 0 772 50
27 c34 19 57 42 77 75 l28 48 5 251 c5 234 6 254 25 274 11 12 30 26 42 31 30
11 77 -6 91 -34 8 -15 12 -159 14 -457 l3 -435 28 -57 c33 -67 81 -107 151
-125 105 -27 215 23 265 122 l26 49 5 447 c5 478 4 470 57 490 13 5 35 4 54
-3 46 -16 59 -57 59 -183 0 -118 10 -151 60 -209 48 -54 97 -76 170 -76 110 0
195 61 225 164 21 70 22 621 1 690 -19 62 -56 109 -114 143 l-47 28 -312 3
-313 3 0 88 0 88 34 6 c93 15 238 121 291 212 123 208 74 466 -135 717 -76 92
-106 105 -154 67 -42 -33 -36 -77 18 -138 134 -151 206 -323 186 -446 -20
-120 -108 -226 -216 -259 -22 -7 -22 -4 -25 125 -4 129 -4 131 -32 155 -15 13
-37 24 -47 24 -10 0 -32 -11 -47 -24 -28 -24 -28 -26 -32 -155 -3 -129 -3
-132 -25 -125 -79 24 -154 93 -191 176 -60 132 -24 326 101 548 51 91 140 213
213 294 59 65 68 110 29 146 -37 34 -72 26 -124 -27z m751 -1635 c52 -24 55
-43 55 -351 0 -293 -5 -338 -40 -357 -36 -20 -87 -12 -109 16 -18 23 -21 41
-21 120 0 51 -5 116 -11 144 -23 107 -118 184 -227 183 -68 0 -115 -19 -161
-64 -71 -71 -71 -66 -71 -534 0 -265 -4 -434 -11 -458 -19 -68 -94 -82 -144
-27 -19 21 -20 40 -25 474 -5 445 -5 452 -28 494 -47 88 -158 135 -258 109
-70 -18 -118 -58 -151 -125 -28 -57 -28 -58 -31 -297 -3 -228 -5 -241 -24
-262 -31 -33 -87 -31 -119 3 l-24 26 -3 416 c-2 301 1 424 9 445 24 58 6 56
716 57 485 0 659 -3 678 -12z m826 -2827 c38 -38 38 -74 0 -112 l-29 -29
-1472 0 -1472 0 -29 29 c-17 18 -29 40 -29 56 0 16 12 38 29 56 l29 29 1472 0
1472 0 29 -29z m-386 -317 c-88 -74 -152 -115 -198 -129 -76 -23 -1758 -23
-1834 0 -46 14 -110 55 -198 129 l-30 25 1145 0 1145 0 -30 -25z"/>
</g>
</svg>
