<?xml version="1.0" standalone="no"?>
<!DOCTYPE svg PUBLIC "-//W3C//DTD SVG 20010904//EN"
 "http://www.w3.org/TR/2001/REC-SVG-20010904/DTD/svg10.dtd">
<svg version="1.0" xmlns="http://www.w3.org/2000/svg"
 width="512.000000pt" height="512.000000pt" viewBox="0 0 512.000000 512.000000"
 preserveAspectRatio="xMidYMid meet">

<g transform="translate(0.000000,512.000000) scale(0.100000,-0.100000)"
fill="#000000" stroke="none">
<path d="M2329 4971 c-14 -10 -50 -77 -84 -151 l-60 -133 -62 -28 c-35 -16
-85 -36 -111 -45 l-49 -17 -142 52 c-101 38 -150 51 -169 47 -32 -8 -309 -289
-318 -323 -5 -20 -1 -42 21 -95 6 -16 -23 -17 -412 -20 -410 -3 -419 -3 -476
-26 -112 -45 -199 -136 -238 -248 -19 -53 -19 -98 -17 -1427 l3 -1372 33 -67
c41 -84 128 -167 209 -200 l58 -23 753 -3 c708 -2 753 -4 748 -20 -3 -9 -19
-90 -37 -179 l-32 -163 -153 0 c-195 0 -240 -14 -330 -104 -48 -49 -65 -74
-82 -125 -29 -84 -28 -116 3 -146 l24 -25 1151 0 1151 0 26 26 c21 21 25 32
21 68 -14 118 -112 244 -223 285 -48 18 -78 21 -209 21 l-153 0 -32 163 c-18
89 -34 170 -37 179 -5 16 40 18 748 20 l753 3 58 23 c81 33 168 116 209 200
l33 67 3 1372 c2 1329 2 1374 -17 1427 -39 112 -127 203 -238 248 -57 22 -67
23 -458 26 l-400 3 -29 30 c-45 46 -85 63 -146 63 -70 1 -133 -33 -175 -92
-26 -38 -30 -52 -30 -110 0 -44 6 -79 18 -103 l18 -36 -58 -101 -58 -102 -233
0 c-232 0 -234 0 -265 24 -18 14 -56 36 -86 50 l-54 25 187 3 188 3 25 29 c19
23 24 36 19 60 -12 63 -25 66 -262 66 l-214 0 0 55 0 55 246 0 c139 0 253 4
263 10 10 5 53 70 95 143 l77 135 54 4 c165 14 243 218 132 345 -113 128 -318
77 -357 -89 -13 -53 -9 -91 16 -143 9 -19 14 -38 12 -43 -1 -4 -28 -52 -58
-105 l-55 -97 -212 0 -213 0 0 130 0 130 38 0 c31 0 40 -6 59 -35 49 -74 155
-112 238 -85 21 7 57 31 79 54 85 85 87 202 4 292 -48 52 -91 68 -168 62 -69
-5 -117 -34 -152 -90 -20 -32 -28 -37 -60 -38 l-38 0 0 90 c0 83 -2 93 -25
115 -23 24 -30 25 -143 25 -102 0 -123 -3 -143 -19z m151 -390 l0 -249 -52 -7
c-181 -25 -391 -139 -511 -278 -69 -80 -88 -108 -130 -193 -194 -388 -69 -861
293 -1103 95 -63 222 -114 331 -133 l69 -12 0 -248 0 -248 -28 0 c-26 0 -32 8
-83 120 -29 66 -61 128 -70 138 -9 10 -86 47 -170 81 l-154 63 -45 -15 c-25
-8 -88 -30 -141 -50 l-96 -35 -96 96 -95 97 50 135 51 135 -18 50 c-9 27 -40
102 -67 166 l-49 117 -72 34 c-40 19 -100 47 -135 63 l-62 28 0 136 0 137 131
59 c149 67 131 46 219 258 l54 129 -21 61 c-11 34 -34 98 -51 143 l-30 81 96
95 97 96 130 -49 c72 -27 137 -49 146 -49 16 0 247 93 304 123 25 12 42 39 90
146 55 123 61 131 87 131 l28 0 0 -249z m460 139 c24 -24 26 -53 4 -74 -32
-33 -84 -8 -84 39 0 21 32 55 52 55 5 0 17 -9 28 -20z m450 -9 c16 -31 12 -59
-12 -75 -12 -9 -26 -16 -30 -16 -15 0 -48 40 -48 59 0 46 69 70 90 32z m260
-531 c24 -24 25 -38 4 -68 -18 -26 -46 -28 -68 -6 -21 20 -20 53 1 76 21 23
38 23 63 -2z m-2223 -110 c2 -14 -16 -70 -40 -124 l-42 -100 -135 -63 c-74
-34 -143 -72 -152 -84 -16 -19 -18 -46 -18 -230 0 -202 1 -209 23 -233 12 -14
80 -51 151 -82 l129 -58 28 -63 c16 -35 36 -85 45 -112 l18 -48 -53 -143 c-29
-81 -50 -153 -47 -164 7 -30 308 -326 331 -326 11 0 82 23 159 52 l139 51 49
-17 c26 -9 76 -29 111 -45 l62 -28 59 -129 c79 -175 78 -174 225 -174 160 0
165 3 169 134 l4 96 38 0 c29 0 40 -5 44 -18 4 -10 21 -33 39 -52 110 -113
298 -66 343 87 18 62 12 111 -22 170 -73 128 -264 129 -347 4 -23 -35 -32 -41
-62 -41 l-35 0 0 135 0 135 213 0 212 0 59 -102 c55 -96 58 -104 46 -133 -34
-86 -34 -145 4 -211 68 -121 239 -138 329 -33 55 64 69 133 42 210 -28 79 -90
127 -178 138 l-49 6 -76 130 c-41 72 -82 135 -91 142 -12 9 -85 12 -263 13
l-248 0 0 55 0 55 214 0 c194 0 216 2 237 19 29 23 31 81 4 111 -17 19 -30 20
-214 20 l-196 1 56 28 c32 15 73 39 92 54 l36 27 233 0 233 0 58 -102 58 -102
-21 -47 c-61 -143 36 -292 190 -293 175 -1 268 209 154 343 -45 52 -65 63
-132 70 l-54 6 -69 120 c-103 177 -80 165 -329 165 l-208 0 16 50 16 50 333 0
332 0 15 -27 c63 -122 239 -137 333 -30 71 81 69 197 -3 277 -88 97 -243 89
-317 -17 l-31 -43 -331 0 -331 0 -16 50 -16 50 203 0 c125 0 213 4 228 11 15
7 51 58 97 139 l74 128 47 5 c27 3 61 13 77 21 42 22 90 75 103 113 l11 34
376 -3 c365 -3 378 -4 417 -25 52 -28 99 -78 122 -128 17 -38 18 -109 21
-1232 l2 -1193 -2200 0 -2200 0 2 1193 c3 1123 4 1194 21 1232 31 68 94 123
167 146 14 4 216 7 450 6 l425 -2 2 -25z m843 -243 c0 -2 -17 -19 -37 -38
l-38 -34 34 38 c33 34 41 42 41 34z m397 -78 c121 -46 200 -168 190 -299 -7
-107 -62 -192 -159 -246 -47 -26 -62 -29 -138 -29 -69 0 -93 5 -127 23 -63 33
-106 74 -139 134 -26 47 -29 63 -29 138 0 76 3 91 30 139 75 136 228 193 372
140z m1241 -241 c7 -7 12 -24 12 -38 0 -34 -17 -50 -52 -50 -27 0 -48 23 -48
54 0 37 61 61 88 34z m-2051 -55 c-3 -10 -5 -2 -5 17 0 19 2 27 5 18 2 -10 2
-26 0 -35z m1793 -623 c24 -24 25 -47 3 -72 -20 -22 -46 -23 -67 -2 -21 20
-20 53 1 76 21 23 38 23 63 -2z m-708 -537 c22 -20 23 -51 1 -75 -20 -22 -41
-23 -65 -1 -22 20 -23 51 -1 75 20 22 41 23 65 1z m446 5 c7 -7 12 -24 12 -38
0 -34 -17 -50 -52 -50 -37 0 -57 38 -40 75 13 27 58 35 80 13z m1369 -1002
c-11 -113 -55 -182 -142 -222 l-50 -24 -2005 0 -2005 0 -50 24 c-87 40 -131
109 -142 222 l-6 64 2203 0 2203 0 -6 -64z m-1788 -563 c18 -87 35 -168 38
-180 l5 -23 -452 0 -452 0 5 23 c3 12 20 93 38 180 l33 157 376 0 377 0 32
-157z m544 -393 c26 -16 47 -34 47 -40 0 -7 -326 -10 -1000 -10 -674 0 -1000
3 -1000 10 0 6 21 24 47 40 l47 30 906 0 906 0 47 -30z"/>
<path d="M555 3980 c-27 -11 -61 -49 -74 -83 -8 -19 -11 -362 -11 -1088 0
-1148 -2 -1096 55 -1149 l27 -25 2008 0 2008 0 27 25 c57 53 55 0 55 1150 0
1149 2 1097 -55 1150 l-27 25 -305 3 c-304 3 -306 3 -329 -19 -25 -24 -31 -67
-14 -99 18 -34 65 -40 321 -40 l249 0 0 -1025 0 -1025 -1930 0 -1930 0 0 1025
0 1025 249 0 c256 0 303 6 321 40 17 32 11 75 -13 98 -23 22 -29 22 -318 21
-162 0 -303 -4 -314 -9z"/>
<path d="M650 1260 c-12 -12 -20 -33 -20 -55 0 -22 8 -43 20 -55 19 -19 33
-20 285 -20 252 0 266 1 285 20 12 12 20 33 20 55 0 22 -8 43 -20 55 -19 19
-33 20 -285 20 -252 0 -266 -1 -285 -20z"/>
<path d="M1335 1255 c-30 -30 -32 -64 -4 -99 19 -24 27 -26 89 -26 62 0 70 2
89 26 28 35 26 69 -4 99 -20 21 -34 25 -85 25 -51 0 -65 -4 -85 -25z"/>
</g>
</svg>
