<svg width="81" height="21" viewBox="0 0 81 21" fill="none" xmlns="http://www.w3.org/2000/svg">
<path d="M5.00016 17.6666C4.30572 17.6666 3.71544 17.4236 3.22933 16.9375C2.74322 16.4514 2.50016 15.8611 2.50016 15.1666H0.833496V5.99998C0.833496 5.54165 0.99683 5.14942 1.3235 4.82331C1.65016 4.4972 2.04239 4.33387 2.50016 4.33331H14.1668V7.66665H16.6668L19.1668 11V15.1666H17.5002C17.5002 15.8611 17.2571 16.4514 16.771 16.9375C16.2849 17.4236 15.6946 17.6666 15.0002 17.6666C14.3057 17.6666 13.7154 17.4236 13.2293 16.9375C12.7432 16.4514 12.5002 15.8611 12.5002 15.1666H7.50016C7.50016 15.8611 7.25711 16.4514 6.771 16.9375C6.28489 17.4236 5.69461 17.6666 5.00016 17.6666ZM5.00016 16C5.23627 16 5.43433 15.92 5.59433 15.76C5.75433 15.6 5.83405 15.4022 5.8335 15.1666C5.83294 14.9311 5.75294 14.7333 5.5935 14.5733C5.43405 14.4133 5.23627 14.3333 5.00016 14.3333C4.76405 14.3333 4.56627 14.4133 4.40683 14.5733C4.24739 14.7333 4.16739 14.9311 4.16683 15.1666C4.16627 15.4022 4.24627 15.6003 4.40683 15.7608C4.56739 15.9214 4.76516 16.0011 5.00016 16ZM2.50016 13.5H3.16683C3.40294 13.25 3.67377 13.0486 3.97933 12.8958C4.28489 12.743 4.62516 12.6666 5.00016 12.6666C5.37516 12.6666 5.71544 12.743 6.021 12.8958C6.32655 13.0486 6.59739 13.25 6.8335 13.5H12.5002V5.99998H2.50016V13.5ZM15.0002 16C15.2363 16 15.4343 15.92 15.5943 15.76C15.7543 15.6 15.8341 15.4022 15.8335 15.1666C15.8329 14.9311 15.7529 14.7333 15.5935 14.5733C15.4341 14.4133 15.2363 14.3333 15.0002 14.3333C14.7641 14.3333 14.5663 14.4133 14.4068 14.5733C14.2474 14.7333 14.1674 14.9311 14.1668 15.1666C14.1663 15.4022 14.2463 15.6003 14.4068 15.7608C14.5674 15.9214 14.7652 16.0011 15.0002 16ZM14.1668 11.8333H17.7085L15.8335 9.33331H14.1668V11.8333Z" fill="#27AE60"/>
<path d="M28.1307 16V5.92H29.8177V16H28.1307ZM37.1436 16V12.36C37.1436 12.122 37.1272 11.8583 37.0946 11.569C37.0619 11.2797 36.9849 11.002 36.8636 10.736C36.7469 10.4653 36.5696 10.2437 36.3316 10.071C36.0982 9.89833 35.7809 9.812 35.3796 9.812C35.1649 9.812 34.9526 9.847 34.7426 9.917C34.5326 9.987 34.3412 10.1083 34.1686 10.281C34.0006 10.449 33.8652 10.6823 33.7626 10.981C33.6599 11.275 33.6086 11.653 33.6086 12.115L32.6076 11.688C32.6076 11.044 32.7312 10.4607 32.9786 9.938C33.2306 9.41533 33.5992 9 34.0846 8.692C34.5699 8.37933 35.1672 8.223 35.8766 8.223C36.4366 8.223 36.8986 8.31633 37.2626 8.503C37.6266 8.68967 37.9159 8.92767 38.1306 9.217C38.3452 9.50633 38.5039 9.81433 38.6066 10.141C38.7092 10.4677 38.7746 10.778 38.8026 11.072C38.8352 11.3613 38.8516 11.597 38.8516 11.779V16H37.1436ZM31.9006 16V8.44H33.4056V10.785H33.6086V16H31.9006ZM46.4 16.21C45.4666 16.21 44.7083 16 44.125 15.58C43.5416 15.16 43.187 14.5697 43.061 13.809L44.783 13.543C44.8716 13.9163 45.0676 14.2103 45.371 14.425C45.6743 14.6397 46.057 14.747 46.519 14.747C46.925 14.747 47.2376 14.6677 47.457 14.509C47.681 14.3457 47.793 14.124 47.793 13.844C47.793 13.6713 47.751 13.5337 47.667 13.431C47.5876 13.3237 47.4103 13.221 47.135 13.123C46.8596 13.025 46.4373 12.9013 45.868 12.752C45.2333 12.584 44.7293 12.4043 44.356 12.213C43.9826 12.017 43.7143 11.786 43.551 11.52C43.3876 11.254 43.306 10.932 43.306 10.554C43.306 10.0827 43.4296 9.672 43.677 9.322C43.9243 8.972 44.2696 8.70367 44.713 8.517C45.1563 8.32567 45.679 8.23 46.281 8.23C46.869 8.23 47.3893 8.321 47.842 8.503C48.2993 8.685 48.668 8.944 48.948 9.28C49.228 9.616 49.4006 10.0103 49.466 10.463L47.744 10.771C47.702 10.449 47.555 10.1947 47.303 10.008C47.0556 9.82133 46.7243 9.71633 46.309 9.693C45.9123 9.66967 45.5926 9.73033 45.35 9.875C45.1073 10.015 44.986 10.2133 44.986 10.47C44.986 10.6147 45.035 10.7383 45.133 10.841C45.231 10.9437 45.427 11.0463 45.721 11.149C46.0196 11.2517 46.463 11.3777 47.051 11.527C47.653 11.681 48.1336 11.8583 48.493 12.059C48.857 12.255 49.1183 12.4907 49.277 12.766C49.4403 13.0413 49.522 13.375 49.522 13.767C49.522 14.5277 49.2443 15.125 48.689 15.559C48.1383 15.993 47.3753 16.21 46.4 16.21ZM55.4862 16C54.9869 16.0933 54.4969 16.133 54.0162 16.119C53.5402 16.1097 53.1132 16.0233 52.7352 15.86C52.3572 15.692 52.0702 15.4283 51.8742 15.069C51.7015 14.7423 51.6105 14.4087 51.6012 14.068C51.5919 13.7273 51.5872 13.3423 51.5872 12.913V6.34H53.2672V12.815C53.2672 13.1183 53.2695 13.3843 53.2742 13.613C53.2835 13.8417 53.3325 14.0283 53.4212 14.173C53.5892 14.453 53.8575 14.6093 54.2262 14.642C54.5949 14.6747 55.0149 14.656 55.4862 14.586V16ZM50.2152 9.763V8.44H55.4862V9.763H50.2152ZM60.068 16.21C59.312 16.21 58.6517 16.0397 58.087 15.699C57.5224 15.3583 57.0837 14.8893 56.771 14.292C56.463 13.69 56.309 12.9993 56.309 12.22C56.309 11.4267 56.4677 10.7313 56.785 10.134C57.1024 9.53667 57.5434 9.07 58.108 8.734C58.6727 8.398 59.326 8.23 60.068 8.23C60.8287 8.23 61.4914 8.40033 62.056 8.741C62.6207 9.08167 63.0594 9.553 63.372 10.155C63.6847 10.7523 63.841 11.4407 63.841 12.22C63.841 13.004 63.6824 13.697 63.365 14.299C63.0524 14.8963 62.6137 15.3653 62.049 15.706C61.4844 16.042 60.824 16.21 60.068 16.21ZM60.068 14.628C60.74 14.628 61.2394 14.404 61.566 13.956C61.8927 13.508 62.056 12.9293 62.056 12.22C62.056 11.4873 61.8904 10.904 61.559 10.47C61.2277 10.0313 60.7307 9.812 60.068 9.812C59.6154 9.812 59.242 9.91467 58.948 10.12C58.6587 10.3207 58.444 10.603 58.304 10.967C58.164 11.3263 58.094 11.744 58.094 12.22C58.094 12.9527 58.2597 13.5383 58.591 13.977C58.927 14.411 59.4194 14.628 60.068 14.628ZM68.6663 16.21C67.887 16.21 67.222 16.0373 66.6713 15.692C66.1207 15.342 65.6983 14.866 65.4043 14.264C65.115 13.662 64.968 12.9807 64.9633 12.22C64.968 11.4453 65.1197 10.7593 65.4183 10.162C65.7217 9.56 66.151 9.08867 66.7063 8.748C67.2617 8.40267 67.922 8.23 68.6873 8.23C69.546 8.23 70.2717 8.447 70.8643 8.881C71.4617 9.31033 71.8513 9.89833 72.0333 10.645L70.3533 11.1C70.2227 10.694 70.0057 10.379 69.7023 10.155C69.399 9.92633 69.0537 9.812 68.6663 9.812C68.2277 9.812 67.866 9.917 67.5813 10.127C67.2967 10.3323 67.0867 10.617 66.9513 10.981C66.816 11.345 66.7483 11.758 66.7483 12.22C66.7483 12.9387 66.9093 13.5197 67.2313 13.963C67.5533 14.4063 68.0317 14.628 68.6663 14.628C69.1143 14.628 69.4667 14.5253 69.7233 14.32C69.9847 14.1147 70.1807 13.8183 70.3113 13.431L72.0333 13.816C71.8 14.586 71.3917 15.1787 70.8083 15.594C70.225 16.0047 69.511 16.21 68.6663 16.21ZM73.4221 16L73.4361 5.92H75.1441V12.08L77.9091 8.44H80.0161L77.0831 12.22L80.2681 16H78.0351L75.1441 12.36V16H73.4221Z" fill="#27AE60"/>
</svg>
