<svg width="24" height="24" viewBox="0 0 24 24" fill="none" xmlns="http://www.w3.org/2000/svg">
<path fill-rule="evenodd" clip-rule="evenodd" d="M4 5C3.44772 5 3 5.44772 3 6V18C3 18.5523 3.44772 19 4 19H20C20.5523 19 21 18.5523 21 18V6C21 5.44772 20.5523 5 20 5H4ZM1 6C1 4.34315 2.34315 3 4 3H20C21.6569 3 23 4.34315 23 6V18C23 19.6569 21.6569 21 20 21H4C2.34315 21 1 19.6569 1 18V6Z" fill="black"/>
<path fill-rule="evenodd" clip-rule="evenodd" d="M1.15612 6.46356C1.45232 5.99742 2.07032 5.85967 2.53645 6.15587L11.5033 11.8538C11.6523 11.9467 11.8245 11.9959 12.0001 11.9959C12.1758 11.9959 12.3479 11.9467 12.4969 11.8539L21.4638 6.15587C21.9299 5.85967 22.5479 5.99742 22.8441 6.46356C23.1403 6.92969 23.0026 7.54769 22.5365 7.84389L13.5665 13.5439C13.5647 13.545 13.5629 13.5462 13.5611 13.5473C13.0932 13.8404 12.5522 13.9959 12.0001 13.9959C11.448 13.9959 10.9071 13.8404 10.4392 13.5473C10.4374 13.5462 10.4356 13.545 10.4338 13.5439L1.4638 7.84389C0.997666 7.54769 0.859911 6.92969 1.15612 6.46356Z" fill="black"/>
</svg>
