<svg xmlns="http://www.w3.org/2000/svg" viewBox="0 0 32 32"><title>36-User-Check</title><g id="_36-User-Check" data-name="36-User-Check"><path d="M13.43,19.41A6,6,0,0,1,10,14a1,1,0,0,0-1-1V11a1,1,0,0,0,1-1V8A6,6,0,0,1,22,8v2a1,1,0,0,0,1,1v2h2V11a2,2,0,0,0-1-1.73V8A8,8,0,0,0,8,8V9.27A2,2,0,0,0,7,11v2a2,2,0,0,0,1,1.75,8.07,8.07,0,0,0,4,6.16v1.39L4.7,25c-.91.23-4.7,1.37-4.7,4v2a1,1,0,0,0,1,1H14V30H2V29c0-.78,1.92-1.7,3.24-2l.11,0,8-3A1,1,0,0,0,14,23V20.31A1,1,0,0,0,13.43,19.41Z"/><path d="M30,25v3H18V18h3V16H18a2,2,0,0,0-2,2V28a2,2,0,0,0,2,2H30a2,2,0,0,0,2-2V25Z"/><path d="M20.71,21.29l-1.41,1.41,3,3a1,1,0,0,0,1.41,0l7-7-1.41-1.41L23,23.59Z"/></g></svg>