<?xml version="1.0" encoding="UTF-8"?>
<svg xmlns="http://www.w3.org/2000/svg" id="Layer_1" data-name="Layer 1" viewBox="0 0 24 24">
  <g>
    <path d="M16.258,7.586h0c-.209,0-.396-.13-.469-.325l-.322-.863c-.183-.488-.572-.873-1.068-1.055l-.873-.319c-.197-.072-.328-.26-.328-.47s.131-.397,.328-.47l.873-.319c.496-.182,.886-.566,1.069-1.056l.321-.862c.073-.196,.26-.325,.469-.325h0c.208,0,.395,.129,.468,.325l.323,.862c.184,.49,.572,.874,1.069,1.056l.872,.319c.197,.072,.328,.26,.328,.47s-.131,.397-.328,.47l-.872,.319c-.497,.182-.886,.566-1.068,1.055l-.324,.863c-.072,.195-.26,.325-.468,.325Zm-1.176-3.031c.503,.263,.912,.67,1.176,1.169,.264-.499,.674-.906,1.177-1.169-.503-.263-.913-.67-1.177-1.169-.264,.499-.674,.907-1.176,1.17Z"/>
    <path d="M12.023,22.995C5.945,22.995,1,18.052,1,11.977,1,6.264,5.285,1.549,10.969,1.009c.214-.03,.421,.102,.507,.302,.085,.2,.031,.433-.134,.575-1.278,1.098-1.899,2.942-1.899,5.637,0,4.996,2.039,7.034,7.037,7.034,2.76,0,4.551-.604,5.637-1.902,.141-.168,.373-.226,.576-.141,.202,.084,.326,.291,.306,.508-.536,5.686-5.254,9.973-10.975,9.973ZM9.721,2.223C5.236,3.263,2,7.243,2,11.977c0,5.524,4.496,10.018,10.023,10.018,4.732,0,8.711-3.226,9.756-7.701-1.262,.857-2.986,1.263-5.3,1.263-3.742,0-8.037-.913-8.037-8.034,0-2.271,.42-4.02,1.278-5.3Z"/>
  </g>
  <g>
    <circle cx="18.819" cy="11.312" r=".75"/>
    <circle cx="14.085" cy="10.691" r=".75"/>
  </g>
</svg>
