<svg width="16" height="16" viewBox="0 0 16 16" fill="none" xmlns="http://www.w3.org/2000/svg">
<g clip-path="url(#clip0_2004_54)">
<mask id="mask0_2004_54" style="mask-type:luminance" maskUnits="userSpaceOnUse" x="0" y="0" width="16" height="16">
<path d="M15.4983 8.00057C15.4983 9.98995 14.7081 11.8979 13.3013 13.3046C11.8946 14.7113 9.98673 15.5016 7.99734 15.5016C6.00795 15.5016 4.10004 14.7113 2.69333 13.3046C1.28662 11.8979 0.496338 9.98995 0.496338 8.00057C0.496338 6.01118 1.28662 4.10327 2.69333 2.69656C4.10004 1.28985 6.00795 0.499565 7.99734 0.499565C9.98673 0.499565 11.8946 1.28985 13.3013 2.69656C14.7081 4.10327 15.4983 6.01118 15.4983 8.00057Z" fill="white"/>
</mask>
<g mask="url(#mask0_2004_54)">
<mask id="mask1_2004_54" style="mask-type:luminance" maskUnits="userSpaceOnUse" x="0" y="0" width="16" height="16">
<path d="M0.5 0.5H15.5V15.5H0.5V0.5Z" fill="white"/>
</mask>
<g mask="url(#mask1_2004_54)">
<path d="M0.5 0.5H15.5V15.5H0.5V0.5Z" fill="#2B4896"/>
<path d="M7.13062 7.14648L-0.889893 16.043H0.68042V16.54L8.21265 8.08886L7.13062 7.14648Z" fill="white"/>
<path d="M-0.398926 17.2144L7.35652 8.57726L6.76514 8.63526V8.60792L-0.760254 16.8862L-0.398926 17.2144Z" fill="#E32D3C"/>
<path d="M15.4619 -0.572601L7.44141 8.32388H9.01172V8.82095L16.5752 0.432281L15.4619 -0.572601Z" fill="white"/>
<path d="M15.7891 -0.454094L7.99219 8.12501H8.625V8.15235L16.1504 -0.125969L15.7891 -0.454094Z" fill="#E32D3C"/>
<path d="M6.75687 9.0728L-0.926445 -0.111549L0.642297 -0.0534476L0.660689 -0.550021L7.90622 8.11011L6.75687 9.0728Z" fill="white"/>
<path d="M7.08815 8.96652L-0.383501 0.107517L0.248679 0.130931L0.24969 0.103614L7.46126 8.6521L7.08815 8.96652Z" fill="#E32D3C"/>
<path d="M6.75 0.5H9.25V15.5H6.75V0.5Z" fill="white"/>
<path d="M9.20312 7.44018L17.2236 16.3367H15.6533V16.8337L8.08984 8.44506L9.20312 7.44018Z" fill="white"/>
<path d="M8.87598 7.55869L16.6729 16.1378H16.04V16.1651L8.51465 7.88681L8.87598 7.55869Z" fill="#E32D3C"/>
<path d="M15.5 6.75V9.25H0.5V6.75L15.5 6.75Z" fill="white"/>
<path d="M7.25 0.5H8.75V15.5H7.25V0.5Z" fill="#E32D3C"/>
<path d="M15.5 7.25V8.75H0.5V7.25L15.5 7.25Z" fill="#E32D3C"/>
</g>
</g>
<path opacity="0.75" d="M15.4999 8.00006C15.4999 9.9892 14.7097 11.8969 13.3032 13.3034C11.8966 14.7099 9.98896 15.5001 7.99982 15.5001C6.01068 15.5001 4.10301 14.7099 2.69647 13.3034C1.28994 11.8969 0.499756 9.9892 0.499756 8.00006C0.499756 6.01092 1.28994 4.10325 2.69647 2.69671C4.10301 1.29018 6.01068 0.499992 7.99982 0.499992C9.98896 0.499992 11.8966 1.29018 13.3032 2.69671C14.7097 4.10325 15.4999 6.01092 15.4999 8.00006Z" fill="url(#paint0_radial_2004_54)"/>
</g>
<defs>
<radialGradient id="paint0_radial_2004_54" cx="0" cy="0" r="1" gradientTransform="matrix(6.51756 -3.84003 3.81003 6.46506 8.00354 8.00391)" gradientUnits="userSpaceOnUse">
<stop stop-color="#FEFEFE"/>
<stop offset="1" stop-color="white" stop-opacity="0"/>
</radialGradient>
<clipPath id="clip0_2004_54">
<rect width="16" height="16" fill="white"/>
</clipPath>
</defs>
</svg>
