<svg width="16" height="16" viewBox="0 0 16 16" fill="none" xmlns="http://www.w3.org/2000/svg">
<g clip-path="url(#clip0_2004_43)">
<path d="M8 16C12.4183 16 16 12.4183 16 8C16 3.58172 12.4183 0 8 0C3.58172 0 0 3.58172 0 8C0 12.4183 3.58172 16 8 16Z" fill="#6FC2E5"/>
<path d="M16 7.99718V8C16 12.4181 12.4181 16 8 16C5.87827 16 3.84344 15.1571 2.34315 13.6569C0.842855 12.1566 0 10.1217 0 8V7.99718H16Z" fill="#F6C752"/>
<path d="M16 7.99719V8H0V7.99719C0.00074575 5.87594 0.84393 3.84183 2.34414 2.34215C3.84435 0.842469 5.87876 -1.31089e-07 8 0C12.4172 0 16 3.58 16 7.99719Z" fill="#3586CB"/>
<path d="M8.9925 15.9375C7.86695 16.0782 6.72435 15.978 5.6405 15.6434C4.55665 15.3089 3.55633 14.7477 2.70592 13.997C1.85551 13.2464 1.17446 12.3235 0.707934 11.2896C0.241414 10.2556 9.85773e-05 9.13431 0 8L0 7.99718H1.98594V8C1.98608 9.94958 2.69813 11.832 3.98832 13.2936C5.2785 14.7552 7.05801 15.6954 8.9925 15.9375Z" fill="#F7BB38"/>
<path d="M8.9925 0.0625037C7.05763 0.3037 5.27758 1.24361 3.98722 2.70542C2.69686 4.16722 1.98514 6.05016 1.98594 8H0V7.99719C0.00114859 6.86332 0.243194 5.74263 0.710105 4.70935C1.17702 3.67608 1.85813 2.75379 2.70835 2.00359C3.55856 1.25339 4.55847 0.692393 5.64184 0.357756C6.7252 0.0231182 7.86731 -0.0775211 8.9925 0.0625037Z" fill="#366FCA"/>
<path d="M13.8261 12.0937C14.1071 12.0937 14.3349 11.866 14.3349 11.585C14.3349 11.304 14.1071 11.0762 13.8261 11.0762C13.5452 11.0762 13.3174 11.304 13.3174 11.585C13.3174 11.866 13.5452 12.0937 13.8261 12.0937Z" fill="#F6D372"/>
<path d="M14.5754 11.1959C14.7744 11.1959 14.9357 11.0346 14.9357 10.8356C14.9357 10.6366 14.7744 10.4753 14.5754 10.4753C14.3764 10.4753 14.2151 10.6366 14.2151 10.8356C14.2151 11.0346 14.3764 11.1959 14.5754 11.1959Z" fill="#F6D372"/>
</g>
<defs>
<clipPath id="clip0_2004_43">
<rect width="16" height="16" fill="white"/>
</clipPath>
</defs>
</svg>
